<?xml version="1.0" encoding="utf-8"?>
<!-- Generator: Adobe Illustrator 18.1.1, SVG Export Plug-In . SVG Version: 6.00 Build 0)  -->
<svg version="1.1" xmlns="http://www.w3.org/2000/svg" xmlns:xlink="http://www.w3.org/1999/xlink" x="0px" y="0px"
	 viewBox="0 0 1000 1000" enable-background="new 0 0 1000 1000" xml:space="preserve">
<g id="Layer_1">
	<g>
		<path fill="#FFFFFF" d="M595.8,319.9c1.2,4,2.4,7.9,3.4,12c7.4-1.1,15.1-1.7,23.1-1.7c38.4,0,67.9,8.9,90.6,29.5l134-62.7
			c-52.6-76-139.9-109.5-224.6-110.1c-33.9,0-67.9,5.5-100.1,16.5C556,233.5,581.4,273.5,595.8,319.9z"/>
		<path fill="#FFFFFF" d="M898.4,459H621v134h126c-26.6,59-64.8,75.4-124.7,75.4c-25.1,0-47.7-5.3-67.1-15.4l86.1,160.2
			c101-5.5,201.3-55.4,240.4-175.5C901.7,578.2,901.7,518,898.4,459z"/>
	</g>
</g>
<g id="Layer_2">
	<path fill="#FFFFFF" d="M473.7,595.2C627.6,488.1,584.2,188,355.4,187c-84.9,0-171.4,0-255.4,0c0,209,0,418,0,626
		c48.3,0,98,0,150,0c0,0,0-431.4,0-482.4c34,0,71-1.5,106-0.6c84.9,0.9,80.2,156.1-0.5,156.1H326v143.7l18.3,33.5l56.4,103.7
		l-0.1-0.5l25.6,46.6H591L473.7,595.2z"/>
</g>
</svg>
