<?xml version="1.0" encoding="utf-8"?>
<!-- Generator: Adobe Illustrator 18.1.1, SVG Export Plug-In . SVG Version: 6.00 Build 0)  -->
<svg version="1.1" id="Layer_1" xmlns="http://www.w3.org/2000/svg" xmlns:xlink="http://www.w3.org/1999/xlink" x="0px" y="0px"
	 viewBox="0 0 200 200" enable-background="new 0 0 200 200" xml:space="preserve">
<g>
	<linearGradient id="SVGID_1_" gradientUnits="userSpaceOnUse" x1="19.4671" y1="82.1715" x2="81.5384" y2="20.1003">
		<stop  offset="0" style="stop-color:#BF272D"/>
		<stop  offset="1" style="stop-color:#FF4F39"/>
	</linearGradient>
	<path fill="url(#SVGID_1_)" d="M50.6,97.5L50.6,97.5c0.4,0,0.7-0.1,1.1-0.3l39-24.1c0.2-0.1,0.4-0.3,0.6-0.4s0.3-0.3,0.4-0.4
		c0.2-0.4,0.3-0.7,0.3-1.2c0-0.2,0-0.6,0-0.7l-2.2-41.2c0-0.5-0.3-1-0.6-1.3c-0.1-0.1-0.3-0.4-0.5-0.5L52.3,4.4
		C52.1,4.3,52,4.2,51.7,4c-0.4-0.2-0.8-0.4-1.3-0.4c-0.4,0-0.9,0.1-1.3,0.4c-0.1,0.1-0.3,0.2-0.4,0.3L12.4,27.1
		c-0.2,0.1-0.4,0.3-0.5,0.5c-0.4,0.4-0.6,0.8-0.6,1.3L9.1,70.1c0,0.1-0.1,0.4-0.1,0.7s0.1,0.8,0.3,1.2c0.1,0.1,0.3,0.3,0.4,0.4
		c0.1,0.1,0.3,0.3,0.5,0.4l39.1,24.3c0.3,0.2,0.7,0.3,1.1,0.3 M48.6,92.5l-31-19.2l20.5,0.9l10.4,0.4V92.5z M14.8,31.2l5.8,1.5
		l4.1,1.1l-11.6,27L14.8,31.2z M70.4,34.6l-20,34.5L30.5,34.5L70.4,34.6z M13.5,69.4l7.2-16.8l5.9-13.8l1-2.1l15.1,26.2l4.6,7.9
		l-6.9-0.3L13.5,69.4z M50.4,8.3l19.2,22.5l-38.4-0.1l16-18.7L50.4,8.3z M41.3,13.4l-2.1,2.4L26.7,30.5l-9-2.4L41.3,13.4z"/>
</g>
<linearGradient id="SVGID_2_" gradientUnits="userSpaceOnUse" x1="119.2664" y1="79.7887" x2="179.6376" y2="19.4174">
	<stop  offset="0" style="stop-color:#BF272D"/>
	<stop  offset="1" style="stop-color:#FF4F39"/>
</linearGradient>
<path fill="url(#SVGID_2_)" d="M186.2,25.9c-0.2-0.2-0.4-0.3-0.7-0.4c-0.1-0.1-0.3-0.2-0.5-0.2L154.3,15l-0.3-0.1l-0.5,0l-39.3,6.6
	c-0.2,0-0.4,0.1-0.6,0.2c-0.8,0.2-1.4,1-1.4,1.9v48.3c0,0.8,0.5,1.5,1.2,1.8L143.6,86l0.4,0.1h0.3c0.1,0,0.2,0,0.4,0l0.2,0l40.1-8.6
	c0.9-0.2,1.6-1,1.6-1.9l0.2-48.3C186.7,26.8,186.5,26.3,186.2,25.9z M153.6,18.6l24.5,8.2l-33.3,7.1l-19.2-7.8l-4.9-2L153.6,18.6z
	 M115.8,26.1l1.3,0.5L142.7,37v44.7l-26.9-10.9V26.1z"/>
<linearGradient id="D8_2_" gradientUnits="userSpaceOnUse" x1="28.2329" y1="171.8735" x2="72.8493" y2="127.2571">
	<stop  offset="0" style="stop-color:#BF272D"/>
	<stop  offset="1" style="stop-color:#FF4F39"/>
</linearGradient>
<path id="D8_1_" fill="url(#D8_2_)" d="M90.3,149c-0.1-0.2-0.2-0.4-0.4-0.5c0,0,0,0,0,0l-38-42.1c-0.2-0.2-0.4-0.4-0.5-0.5
	c-0.3-0.2-0.6-0.3-0.9-0.3c-0.5,0-0.9,0.2-1.2,0.6L11,148.5c-0.4,0.5-0.5,1.1-0.3,1.7c0.1,0.2,0.2,0.3,0.3,0.4c0,0,0,0.1,0.1,0.1
	L49.4,193l0,0c0.1,0.1,0.3,0.2,0.4,0.3l0,0c0.2,0.1,0.5,0.2,0.7,0.2c0.2,0,0.4,0,0.6-0.1c0.1,0,0.2-0.1,0.2-0.1c0,0,0,0,0,0
	c0.1-0.1,0.3-0.2,0.5-0.5l38-42.1C90.4,150.2,90.5,149.5,90.3,149z M50.1,109.7l6.7,14.7l10.8,23.6H15.4L50.1,109.7z M67.6,151.1
	l-4,8.7l-13.5,29.6l-34.7-38.3H67.6z"/>
<linearGradient id="D12_2_" gradientUnits="userSpaceOnUse" x1="120.7405" y1="178.4009" x2="178.1914" y2="120.95">
	<stop  offset="0" style="stop-color:#BF272D"/>
	<stop  offset="1" style="stop-color:#FF4F39"/>
</linearGradient>
<path id="D12_1_" fill="url(#D12_2_)" d="M191.1,133.8l-14.3-14.2l-0.4-0.3c-0.1-0.1-0.2-0.2-0.3-0.2l-25.5-14.5l0,0
	c-0.7-0.4-1.6-0.4-2.3,0l0,0l-25.6,14.6c0,0-0.2,0.1-0.2,0.1l-14.7,14.6c-0.3,0.3-0.5,0.7-0.5,1.2v29.4c0,0.5,0.2,1,0.6,1.2
	c0.1,0.1,0.2,0.2,0.4,0.3l15.8,11.3l0.1,0.1c0,0,0,0,0,0l23.5,17c0.1,0.1,0.3,0.2,0.5,0.3l0,0c0.6,0.3,1.7,0.3,2.2,0l0.1,0
	c0.2-0.1,0.3-0.2,0.5-0.3l23.5-17c0,0,0,0,0,0l15.9-11.4c0.1-0.1-0.1,0.1,0,0c0.6-0.4,1.1-0.8,1.1-1.6V135
	C191.5,134.5,191.4,134.1,191.1,133.8z M149.5,191.6l-9.1-8.7l-12.3-11.8l5.6-21.1l1-3.9h29.6l6.6,25L149.5,191.6z M149.5,107.3
	l24.2,13.9l-1.9,4.5l-7.4,17.3h-29.9l-2.5-6l-6.7-15.8L149.5,107.3z M122.8,123.3l3.2,7.5l5.9,14l-6.6,24.8l-14.9-6.1v-27.9
	L122.8,123.3z"/>
</svg>
