<?xml version="1.0" encoding="utf-8"?>
<!-- Generator: Adobe Illustrator 18.1.1, SVG Export Plug-In . SVG Version: 6.00 Build 0)  -->
<svg version="1.1" xmlns="http://www.w3.org/2000/svg" xmlns:xlink="http://www.w3.org/1999/xlink" x="0px" y="0px"
	 viewBox="0 0 500 500" enable-background="new 0 0 500 500" xml:space="preserve">
<g id="Head">
	<g id="Skin">
		<rect id="Throut" x="210.1" y="413" fill="#C49D6B" width="99.9" height="57.6"/>
		<path id="Face-Skin" fill="#E6BA89" d="M78.7,171.4l169.2-47.8L387.7,174l-16.2,267.2l-252.7-24.5
			C85.3,412.3,84.9,401.9,78.7,171.4z"/>
	</g>
	<g id="Hair_with_Shadow">
		<path id="Hair-Shadow" opacity="0.1" d="M338.1,143.3l-259,46.1l0.7,23.7c35.7,36.3,103.3,21.4,181.6-32.5
			c-2,13.7-25.7,34.2-32.1,40.8c57.2-8.3,81.5-38.6,94.6-58.7c1.5-2.2,2.3,8,2.1,10.3c-0.5,6.2-17.1,42.3-24.3,53
			c14.4-7.4,38.5-33.8,44.6-47.6L338.1,143.3z"/>
		<g id="Hair_2_">
			<g id="Hair_1_">
				<path id="Hair" fill="#472816" d="M449.6,232c5.6,10.2,7.9,70.2,0.3,83.8c-2.7-3.6-4.9-9.1-12-11.6
					c-0.5,43.6-23.8,119.5-66.6,137l12-197.8c1.8-25.3-26.9-44.4-31.5-64.5c-7.4,10.5-25.7,27.2-43.9,42.6
					c5.8-11.4,17.4-32.3,18.5-47.6c-15.9,17.3-67.3,42.5-90,43.6c7.6-9.3,23.4-21.6,26.2-38.7C193.8,220.2,84.9,264.6,20,149.4
					c35.1,13.1,52.8,10.2,64.5-2.3c-10.7-2.2-34.7-14.8-46.1-22c13.8,0.6,47.2-0.4,62.4-9.7c-3.3-5.7-23-7.4-45.4-7.3
					c7.7-9.6,48.5-29.1,69.6-25.5c0.7-11-17.5-13.3-36.2-14.5c9.3-10,72.4-14,88.6-10.5c-1.1-4.8-7.5-11.2-18-13.8
					c7.5-3.6,58.7-1.1,71.2,5.9c-0.6-5.4,0.1-13.5-13.3-17.2c13.4-6.1,65,5.2,72.6,11.1c0.2-4.2,0.5-8.2-5.5-14.3
					c10.9,0,66.5,20.9,85.9,59.7c-0.3-4.5,1.6-12.2,4.6-17.7c0.5,3.8,0.9,8.7,2.6,11.8c-0.2-4.3,0.2-7.5,3.3-11.8
					c0,6.2,3.5,17.3,4.4,23c2.8-4.1,8.4-13.8,16-15.7c-3.4,7.5-9,17.6-9.7,23c3.5,0.1,21.2,0.3,26.1,5.2c-8.1,0.6-24.3,1-26.1,6.6
					c36.6-0.3,94.7,40.9,74.4,130.1C459.6,236.1,456.5,235.3,449.6,232z"/>
				<g>
					<defs>
						<path id="HairClipper" d="M449.6,232c5.6,10.2,7.9,70.2,0.3,83.8c-2.7-3.6-4.9-9.1-12-11.6c-0.5,43.6-23.8,119.5-66.6,137
							l12-197.8c1.8-25.3-26.9-44.4-31.5-64.5c-7.4,10.5-25.7,27.2-43.9,42.6c5.8-11.4,17.4-32.3,18.5-47.6
							c-15.9,17.3-67.3,42.5-90,43.6c7.6-9.3,23.4-21.6,26.2-38.7C193.8,220.2,84.9,264.6,20,149.4c35.1,13.1,52.8,10.2,64.5-2.3
							c-10.7-2.2-34.7-14.8-46.1-22c13.8,0.6,47.2-0.4,62.4-9.7c-3.3-5.7-23-7.4-45.4-7.3c7.7-9.6,48.5-29.1,69.6-25.5
							c0.7-11-17.5-13.3-36.2-14.5c9.3-10,72.4-14,88.6-10.5c-1.1-4.8-7.5-11.2-18-13.8c7.5-3.6,58.7-1.1,71.2,5.9
							c-0.6-5.4,0.1-13.5-13.3-17.2c13.4-6.1,65,5.2,72.6,11.1c0.2-4.2,0.5-8.2-5.5-14.3c10.9,0,66.5,20.9,85.9,59.7
							c-0.3-4.5,1.6-12.2,4.6-17.7c0.5,3.8,0.9,8.7,2.6,11.8c-0.2-4.3,0.2-7.5,3.3-11.8c0,6.2,3.5,17.3,4.4,23
							c2.8-4.1,8.4-13.8,16-15.7c-3.4,7.5-9,17.6-9.7,23c3.5,0.1,21.2,0.3,26.1,5.2c-8.1,0.6-24.3,1-26.1,6.6
							c36.6-0.3,94.7,40.9,74.4,130.1C459.6,236.1,456.5,235.3,449.6,232z"/>
					</defs>
					<clipPath id="HairClipper_1_">
						<use xlink:href="#HairClipper"  overflow="visible"/>
					</clipPath>
					
						<path id="Hair__x28_Lighter_x29_" clip-path="url(#HairClipper_1_)" fill="#63371E" stroke="#472816" stroke-width="9" stroke-miterlimit="10" d="
						M351.9,178.9c-7.4,10.5-25.7,27.2-43.9,42.6c5.8-11.4,17.4-32.3,18.5-47.6c-15.9,17.3-67.3,42.5-90,43.6
						c7.6-9.3,23.4-21.6,26.2-38.7c-68.9,41.3-162.5,74.9-224.5-2.6c86.1,21,187.5-50.9,213.7-58.5c51.7-15,85.6,30.6,128.9-8.1
						C377.2,142.5,360.8,163.7,351.9,178.9z"/>
				</g>
			</g>
			<path id="Hair2" fill="#472816" d="M383.4,252.6c-0.8,15.2-22.1,45-24.6,51.8c2.8,1.1,12.1,5.4,16.1,5.8c1.7-3.6,2-4.6,5.5-9.6
				C383.7,295.6,383.4,252.6,383.4,252.6z"/>
		</g>
	</g>
	<g id="Ear_1_">
		<path id="Ear" fill="#E6BA89" d="M411.4,314c0.3,40.9-20.4,52-35.9,39.4l2.3-48.8C390.6,281.9,411.3,287.1,411.4,314z"/>
		<g id="In-Ear">
			<g>
				<path fill="#997A5C" d="M387.8,317.5c2.1-1.2,5.1-2.4,7.3-0.6c1.9,1.5,2.2,4.2,2,6.5c-0.5,7-5.8,12.7-12.1,15.1
					c-0.6,0.2-0.3,1.2,0.3,1c7-2.7,13-9.4,12.9-17.2c0-2.4-0.8-5-2.9-6.4c-2.5-1.6-5.6-0.5-8,0.8
					C386.7,316.9,387.2,317.8,387.8,317.5L387.8,317.5z"/>
			</g>
		</g>
	</g>
	<g id="Face">
		<g id="Mouth">
			<g id="Mouth-Shadow">
				<path d="M182,373c-14.2-2.5-13.4-4.8-13.2-23.3c17.3,5.6,80.2,4.4,100-2.4C263.6,417.7,170.4,415.5,182,373z"/>
			</g>
			<g id="Tounge">
				<path fill="#7F1313" d="M229.7,391.9c-9,7.8-26.3,8.8-32,2.8c-6.6-7,0.6-17.7,7-23.1c5.7-4.8,20.9-18.7,29.4-8.5
					C242.3,372.9,242.3,380.9,229.7,391.9z"/>
				<path fill="#661212" d="M208.9,389.6c-0.5-3.1,8-13.7,10-15.8c2.2-2.2,5-3.3,6.6-0.3C222,380.1,211.3,389.6,208.9,389.6z"/>
			</g>
			<g id="Teath">
				<path fill="#FFFFFF" d="M184.9,372.1c-19-2.8-14.5,0.4-16.1-22.4c17.3,5.6,80.2,4.4,100-2.4c-2.1,9.9-2,14.5-5.1,22.3
					C230.1,374.6,200.7,374.6,184.9,372.1z"/>
			</g>
			<g id="Teath-Shadow">
				<defs>
					<path id="Clipping_Mask" d="M185.3,372.5c-15.2-0.8-22.6-8.3-21-22.5c17.3,5.6,84.8,4.2,104.6-2.6c-1.4,10.1-2,14.7-5.1,22.3
						C230.1,374.6,201,374.9,185.3,372.5z"/>
				</defs>
				<clipPath id="Clipping_Mask_1_">
					<use xlink:href="#Clipping_Mask"  overflow="visible"/>
				</clipPath>
				<path id="Shadow" opacity="0.1" clip-path="url(#Clipping_Mask_1_)" d="M271.8,344.5l-6.7,1.6c-0.6,9.6-3.5,21-5.4,25.3l5.4-0.2
					L271.8,344.5z"/>
			</g>
			<g id="Mouth-Border">
				<g>
					<path fill="#4C3C2E" d="M182.2,372c-3.6-0.6-9-0.9-11-4.5c-1-1.9-1.2-4.3-1.3-6.4c-0.2-3.8-0.1-7.5-0.1-11.3
						c-0.4,0.3-0.8,0.6-1.3,1c4.7,1.5,9.7,2,14.6,2.5c7.1,0.7,14.2,0.9,21.3,1c15.4,0.2,31-0.4,46.3-2.3c6.1-0.8,12.3-1.7,18.2-3.6
						c-0.4-0.3-0.8-0.6-1.3-1c-0.8,11.5-4.2,22.8-11.1,32.2c-5.7,7.8-13.6,13.9-22.4,17.7c-13.7,5.9-33.7,7.7-45.7-2.9
						c-6.1-5.4-7.6-13.3-5.6-21.1c0.3-1.2-1.6-1.8-1.9-0.5c-1.9,7.3-1.1,14.9,3.9,20.7c4.8,5.7,12.3,8.7,19.6,9.8
						c18.8,2.9,38.9-4.9,51.3-19.3c8.8-10.3,13.1-23.3,14.1-36.6c0-0.6-0.7-1.2-1.3-1c-11.9,4-25.2,4.6-37.5,5.3
						c-14.9,0.8-29.9,1-44.7-0.2c-5.7-0.5-11.7-1-17.2-2.7c-0.6-0.2-1.3,0.3-1.3,1c-0.1,4.1-0.2,8.2,0.1,12.3
						c0.2,2.3,0.5,4.7,1.7,6.7c2.4,4,7.9,4.5,12.1,5.2C183,374.2,183.5,372.2,182.2,372z"/>
				</g>
			</g>
		</g>
		<g id="Nose">
			<g>
				<path fill="#997A5C" d="M191,319.7c3.7,6.7,9.6,13.1,17.7,13.4c8.4,0.3,15.1-6,19.7-12.3c0.4-0.5-0.5-1-0.9-0.5
					c-4.4,6.1-10.8,12.1-18.8,11.8c-7.8-0.3-13.3-6.5-16.8-12.9C191.5,318.6,190.7,319.2,191,319.7L191,319.7z"/>
			</g>
		</g>
		<g id="Eyes">
			<g id="Right_Eye">
				<path fill="#D8AC84" d="M157,276.3c-3.5,6.3-8.8,9.2-16.8,9.2c-7.9,0-11.7-3.8-14.7-9.2c-6.9-0.2,0.7-16.7,15.6-16.7
					C156.5,259.6,164.3,276,157,276.3z"/>
				<path fill="#FFFFFF" d="M157,276.3c-2.2,6.9-7.5,10.9-15.4,10.9c-7.9,0-14.1-4.6-16.1-10.9c1.4-7.1,8.1-11.5,16-11.5
					C149.5,264.8,154.9,268.7,157,276.3z"/>
				<circle fill="#3A4C7C" cx="138.3" cy="276.1" r="7.2"/>
			</g>
			<g id="Left_Eye_1_">
				<path fill="#D8AC84" d="M277.9,275c3.2,7.2,8.8,9.2,16.8,9.2c7.9,0,11.1-4.2,14.7-9.2c6.9-0.2-0.7-16.7-15.6-16.7
					C278.4,258.2,270.6,274.8,277.9,275z"/>
				<path fill="#FFFFFF" d="M277.9,274.9c2.2,6.9,7.5,10.9,15.4,10.9c7.9,0,14.1-4.6,16.1-10.9c-1.4-7.1-8.1-11.5-16-11.5
					S279.9,267.4,277.9,274.9z"/>
				<circle fill="#3A4C7C" cx="290.5" cy="274.8" r="7.2"/>
			</g>
		</g>
		<g id="Eyebrowns">
			<g id="Left_Eyebrown">
				<g>
					<path fill="#472816" d="M272.9,248.8c6.6-3.8,14.2-5.7,21.8-4.3c9.9,1.8,17.9,8.6,23.8,16.5c1.2,1.5,3.8,0,2.6-1.5
						c-6.4-8.4-14.9-15.9-25.6-17.9c-8.4-1.5-16.8,0.4-24.1,4.6C269.7,247.2,271.2,249.8,272.9,248.8L272.9,248.8z"/>
				</g>
			</g>
			<g id="Right_Eyebrown">
				<g>
					<path fill="#472816" d="M113.7,251.6c7.1-4.2,14.9-7.6,23.3-7.8c11.3-0.4,20.9,5.6,28.3,13.7c1.3,1.4,3.4-0.7,2.1-2.1
						c-7.8-8.5-18-14.7-29.9-14.6c-9.1,0.1-17.7,3.7-25.4,8.2C110.6,250,112.1,252.6,113.7,251.6L113.7,251.6z"/>
				</g>
			</g>
		</g>
	</g>
</g>
<g id="Layer_3" display="none">
	<rect x="179.7" y="316.9" display="inline" fill="#191717" width="3.1" height="2"/>
</g>
</svg>
