<?xml version="1.0" standalone="no"?>
<!DOCTYPE svg PUBLIC "-//W3C//DTD SVG 20010904//EN"
 "http://www.w3.org/TR/2001/REC-SVG-20010904/DTD/svg10.dtd">
<svg version="1.0" xmlns="http://www.w3.org/2000/svg"
 width="2134.000000pt" height="2134.000000pt" viewBox="0 0 2134.000000 2134.000000"
 preserveAspectRatio="xMidYMid meet">
<metadata>
Created by potrace 1.14, written by Peter Selinger 2001-2017
</metadata>
<g transform="translate(0.000000,2134.000000) scale(0.100000,-0.100000)"
fill="#000000" stroke="none">
<path d="M3100 21333 c-674 -50 -1288 -287 -1829 -705 -137 -106 -453 -422
-559 -559 -380 -492 -596 -1008 -689 -1644 -16 -113 -17 -547 -21 -7650 -2
-5603 0 -7570 8 -7685 56 -752 356 -1445 867 -2005 552 -604 1290 -972 2138
-1067 143 -16 15101 -13 15290 3 646 55 1274 310 1799 731 130 105 379 354
484 484 385 481 614 1004 714 1634 l23 145 0 7650 c0 7287 -1 7656 -18 7775
-56 396 -153 709 -323 1050 -109 217 -189 346 -324 525 -576 762 -1440 1237
-2393 1315 -87 7 -2517 9 -7625 8 -4123 -1 -7517 -3 -7542 -5z m3480 -2003
c1200 -29 1876 -155 2521 -471 762 -374 1321 -978 1552 -1675 128 -389 174
-739 164 -1252 -10 -533 -86 -941 -254 -1367 -233 -592 -656 -1118 -1226
-1527 -234 -168 -576 -356 -860 -474 -65 -27 -116 -54 -115 -60 5 -17 2032
-2373 2043 -2373 6 -1 1562 1551 3460 3449 l3450 3450 187 -187 188 -188
-1272 -1272 c-1124 -1124 -1269 -1272 -1247 -1277 13 -3 58 -8 99 -11 368 -29
980 -135 1418 -245 616 -155 1332 -415 2017 -733 l140 -65 3 -961 2 -961 -71
0 -70 0 -142 103 c-863 629 -1498 971 -2224 1198 -746 233 -1343 322 -2180
323 l-373 1 -2004 -2005 -2004 -2005 -17 -195 c-35 -410 -30 -966 11 -1400
113 -1193 521 -2174 1205 -2894 679 -715 1575 -1140 2659 -1261 438 -48 999
-48 1485 1 650 65 1342 218 1900 421 99 36 192 72 208 79 l27 15 0 1484 0
1485 -1620 0 -1620 0 0 710 0 710 2420 0 2420 0 -2 -2606 -3 -2606 -135 -60
c-670 -299 -1579 -616 -2285 -798 -765 -198 -1451 -281 -2195 -267 -1037 20
-1949 190 -2771 517 -981 390 -1768 1010 -2344 1845 -543 788 -894 1791 -1010
2890 -8 83 -18 170 -21 194 l-6 44 -1701 -1701 -1702 -1702 -188 188 -187 187
2490 2490 c1370 1370 2489 2495 2488 2501 -2 7 -571 687 -1266 1513 l-1263
1501 -1134 0 -1135 0 0 -2410 0 -2410 -805 0 -805 0 0 6065 0 6065 1653 0
c908 0 1830 -5 2047 -10z"/>
<path d="M4490 15665 l0 -2286 1058 4 c703 3 1096 8 1172 16 577 58 912 137
1216 286 225 111 394 234 574 421 436 453 620 979 620 1784 0 402 -55 688
-186 969 -189 404 -602 743 -1110 910 -235 78 -529 129 -919 162 -91 8 -538
13 -1282 16 l-1143 5 0 -2287z"/>
</g>
</svg>
